<svg xmlns="http://www.w3.org/2000/svg" xmlns:xlink="http://www.w3.org/1999/xlink" width="500" zoomAndPan="magnify" viewBox="0 0 375 374.999991" height="500" preserveAspectRatio="xMidYMid meet" version="1.0"><defs><clipPath id="29e708e49a"><path d="M 54 77.882812 L 321 77.882812 L 321 248 L 54 248 Z M 54 77.882812 " clip-rule="nonzero"/></clipPath></defs><g clip-path="url(#29e708e49a)"><path fill="#38b6ff" d="M 175.386719 102.105469 C 141.9375 102.105469 114.824219 129.222656 114.824219 162.667969 C 114.824219 169.359375 109.398438 174.78125 102.710938 174.78125 C 89.332031 174.78125 78.484375 185.625 78.484375 199.007812 C 78.484375 212.386719 89.332031 223.230469 102.710938 223.230469 L 117.851562 223.230469 L 117.851562 247.457031 L 102.710938 247.457031 C 75.953125 247.457031 54.261719 225.761719 54.261719 199.007812 C 54.261719 176.1875 70.035156 157.054688 91.273438 151.914062 C 96.558594 110.164062 132.203125 77.882812 175.386719 77.882812 C 209.421875 77.882812 238.753906 97.933594 252.25 126.847656 C 254.847656 126.507812 257.488281 126.332031 260.171875 126.332031 C 293.617188 126.332031 320.734375 153.445312 320.734375 186.894531 C 320.734375 202.53125 316.167969 217.539062 306.792969 228.875 C 297.222656 240.441406 283.191406 247.457031 266.226562 247.457031 L 257.144531 247.457031 L 257.144531 223.230469 L 266.226562 223.230469 C 276.019531 223.230469 283.1875 219.398438 288.125 213.433594 C 293.253906 207.234375 296.507812 198.015625 296.507812 186.894531 C 296.507812 166.824219 280.242188 150.554688 260.171875 150.554688 C 256.109375 150.554688 252.226562 151.21875 248.609375 152.429688 C 245.523438 153.464844 242.148438 153.214844 239.25 151.734375 C 236.351562 150.253906 234.167969 147.671875 233.199219 144.5625 C 225.496094 119.945312 202.507812 102.105469 175.386719 102.105469 Z M 175.386719 102.105469 " fill-opacity="1" fill-rule="evenodd"/></g><path fill="#38b6ff" d="M 175.386719 199.007812 L 199.609375 199.007812 L 199.609375 277.738281 L 175.386719 277.738281 Z M 175.386719 199.007812 " fill-opacity="1" fill-rule="evenodd"/><path fill="#38b6ff" d="M 178.933594 292.359375 L 142.597656 256.019531 L 159.726562 238.890625 L 187.5 266.664062 L 215.269531 238.890625 L 232.402344 256.019531 L 196.0625 292.359375 C 191.332031 297.085938 183.664062 297.085938 178.933594 292.359375 Z M 178.933594 292.359375 " fill-opacity="1" fill-rule="evenodd"/></svg>