<svg xmlns="http://www.w3.org/2000/svg" xmlns:xlink="http://www.w3.org/1999/xlink" width="500" zoomAndPan="magnify" viewBox="0 0 375 374.999991" height="500" preserveAspectRatio="xMidYMid meet" version="1.0"><defs><clipPath id="685954a4f3"><path d="M 59.375 179 L 98 179 L 98 185 L 59.375 185 Z M 59.375 179 " clip-rule="nonzero"/></clipPath><clipPath id="e5a86f1f9c"><path d="M 59.375 272 L 95 272 L 95 277 L 59.375 277 Z M 59.375 272 " clip-rule="nonzero"/></clipPath><clipPath id="dbd90b5dd0"><path d="M 153 273 L 158 273 L 158 315.875 L 153 315.875 Z M 153 273 " clip-rule="nonzero"/></clipPath><clipPath id="088c7e2b81"><path d="M 268 257 L 273 257 L 273 315.875 L 268 315.875 Z M 268 257 " clip-rule="nonzero"/></clipPath><clipPath id="0bebc4d84a"><path d="M 280 214 L 315.875 214 L 315.875 219 L 280 219 Z M 280 214 " clip-rule="nonzero"/></clipPath><clipPath id="5963bd4875"><path d="M 59.375 116 L 81 116 L 81 121 L 59.375 121 Z M 59.375 116 " clip-rule="nonzero"/></clipPath><clipPath id="d08808351a"><path d="M 68 59.375 L 299 59.375 L 299 315.875 L 68 315.875 Z M 68 59.375 " clip-rule="nonzero"/></clipPath></defs><path fill="#38b6ff" d="M 208.617188 147.046875 C 208.460938 146.933594 208.292969 146.835938 208.105469 146.769531 C 203.980469 144.460938 199.515625 142.871094 194.824219 142.070312 C 192.476562 141.648438 189.996094 141.4375 187.523438 141.433594 C 187.515625 141.433594 187.507812 141.429688 187.496094 141.429688 C 187.484375 141.429688 187.480469 141.433594 187.46875 141.433594 C 184.992188 141.4375 182.519531 141.648438 180.183594 142.070312 C 180.101562 142.082031 180.023438 142.109375 179.941406 142.121094 C 179.925781 142.125 179.910156 142.125 179.894531 142.132812 C 175.285156 142.949219 170.90625 144.515625 166.875 146.777344 C 166.691406 146.84375 166.523438 146.9375 166.371094 147.054688 C 159.769531 150.792969 154.296875 156.230469 150.546875 162.785156 C 150.507812 162.851562 150.472656 162.921875 150.4375 162.984375 C 150.429688 163 150.421875 163.011719 150.414062 163.027344 C 146.757812 169.402344 144.824219 176.679688 144.824219 184.101562 C 144.824219 191.589844 146.792969 198.953125 150.519531 205.398438 C 150.539062 205.429688 150.570312 205.445312 150.589844 205.476562 C 154.367188 212.039062 159.828125 217.457031 166.382812 221.164062 C 166.53125 221.269531 166.6875 221.355469 166.859375 221.421875 C 170.988281 223.738281 175.464844 225.332031 180.167969 226.136719 C 182.539062 226.558594 185.003906 226.777344 187.496094 226.777344 C 189.988281 226.777344 192.453125 226.558594 194.808594 226.136719 C 199.535156 225.332031 204.019531 223.734375 208.140625 221.417969 C 208.3125 221.351562 208.46875 221.265625 208.609375 221.160156 C 215.15625 217.453125 220.597656 212.058594 224.367188 205.53125 C 224.398438 205.484375 224.441406 205.445312 224.472656 205.398438 C 228.199219 198.953125 230.167969 191.589844 230.167969 184.101562 C 230.167969 176.589844 228.191406 169.21875 224.457031 162.792969 C 220.691406 156.21875 215.210938 150.777344 208.617188 147.046875 Z M 221.496094 202.351562 L 216.851562 202.351562 C 218.382812 196.980469 219.246094 191.550781 219.417969 186.136719 L 226.039062 186.136719 C 225.738281 191.816406 224.183594 197.359375 221.496094 202.351562 Z M 205.9375 217.984375 C 203.339844 219.421875 200.589844 220.542969 197.714844 221.324219 C 199.585938 216.292969 201.078125 211.300781 202.171875 206.414062 L 211.285156 206.414062 C 209.863281 210.28125 208.082031 214.160156 205.9375 217.984375 Z M 189.527344 222.621094 L 189.527344 206.414062 L 198 206.414062 C 196.785156 211.613281 195.113281 216.929688 193 222.28125 C 191.859375 222.449219 190.703125 222.5625 189.527344 222.621094 Z M 181.992188 222.28125 C 179.878906 216.929688 178.207031 211.613281 176.992188 206.414062 L 185.464844 206.414062 L 185.464844 222.621094 C 184.292969 222.558594 183.136719 222.449219 181.992188 222.28125 Z M 169.054688 217.984375 C 166.914062 214.160156 165.128906 210.285156 163.707031 206.414062 L 172.820312 206.414062 C 173.914062 211.304688 175.410156 216.296875 177.277344 221.324219 C 174.410156 220.546875 171.660156 219.421875 169.054688 217.984375 Z M 153.496094 202.351562 C 150.8125 197.363281 149.253906 191.816406 148.953125 186.136719 L 155.574219 186.136719 C 155.746094 191.554688 156.609375 196.984375 158.140625 202.351562 Z M 153.515625 165.835938 L 158.144531 165.835938 C 156.609375 171.21875 155.746094 176.65625 155.574219 182.070312 L 148.953125 182.070312 C 149.253906 176.371094 150.816406 170.824219 153.515625 165.835938 Z M 169.054688 150.21875 C 171.640625 148.789062 174.378906 147.675781 177.242188 146.890625 C 175.367188 151.824219 173.859375 156.808594 172.738281 161.769531 L 163.710938 161.769531 C 165.132812 157.90625 166.917969 154.035156 169.054688 150.21875 Z M 185.464844 145.582031 L 185.464844 161.769531 L 176.914062 161.769531 C 178.160156 156.480469 179.851562 151.167969 181.980469 145.925781 C 183.125 145.757812 184.285156 145.644531 185.464844 145.582031 Z M 193.011719 145.925781 C 195.140625 151.167969 196.832031 156.480469 198.078125 161.769531 L 189.527344 161.769531 L 189.527344 145.582031 C 190.703125 145.644531 191.863281 145.757812 193.011719 145.925781 Z M 205.9375 150.21875 C 208.074219 154.035156 209.855469 157.902344 211.277344 161.769531 L 202.25 161.769531 C 201.128906 156.804688 199.621094 151.824219 197.746094 146.886719 C 200.605469 147.667969 203.34375 148.785156 205.9375 150.21875 Z M 204.71875 182.070312 C 204.621094 176.640625 204.074219 171.199219 203.082031 165.835938 L 212.625 165.835938 C 214.261719 171.21875 215.171875 176.660156 215.355469 182.070312 Z M 189.527344 202.351562 L 189.527344 186.132812 L 200.644531 186.132812 C 200.511719 191.546875 199.921875 196.976562 198.875 202.347656 L 189.527344 202.347656 Z M 176.117188 202.351562 C 175.070312 196.984375 174.480469 191.550781 174.347656 186.136719 L 185.464844 186.136719 L 185.464844 202.351562 Z M 185.464844 165.835938 L 185.464844 182.070312 L 174.335938 182.070312 C 174.4375 176.640625 175.007812 171.195312 176.042969 165.835938 Z M 189.527344 182.070312 L 189.527344 165.835938 L 198.949219 165.835938 C 199.984375 171.195312 200.554688 176.640625 200.65625 182.070312 Z M 171.910156 165.835938 C 170.917969 171.199219 170.371094 176.640625 170.273438 182.070312 L 159.636719 182.070312 C 159.824219 176.664062 160.730469 171.222656 162.367188 165.835938 Z M 159.636719 186.132812 L 170.28125 186.132812 C 170.410156 191.550781 170.980469 196.984375 171.984375 202.347656 L 162.367188 202.347656 C 160.730469 196.980469 159.824219 191.546875 159.636719 186.132812 Z M 203.007812 202.351562 C 204.011719 196.980469 204.582031 191.550781 204.710938 186.136719 L 215.355469 186.136719 C 215.171875 191.546875 214.261719 196.980469 212.625 202.351562 Z M 219.417969 182.070312 C 219.246094 176.65625 218.382812 171.21875 216.847656 165.835938 L 221.476562 165.835938 C 224.175781 170.816406 225.738281 176.371094 226.039062 182.070312 Z M 218.960938 161.769531 L 215.589844 161.769531 C 214.820312 159.535156 213.941406 157.300781 212.941406 155.070312 C 215.207031 157.050781 217.222656 159.304688 218.960938 161.769531 Z M 162.050781 155.074219 C 161.042969 157.300781 160.171875 159.535156 159.398438 161.769531 L 156.027344 161.769531 C 157.769531 159.308594 159.78125 157.054688 162.050781 155.074219 Z M 156.027344 206.414062 L 159.398438 206.414062 C 160.171875 208.652344 161.042969 210.894531 162.050781 213.128906 C 159.785156 211.144531 157.769531 208.886719 156.027344 206.414062 Z M 212.945312 213.125 C 213.949219 210.890625 214.824219 208.648438 215.59375 206.414062 L 218.964844 206.414062 C 217.222656 208.882812 215.207031 211.140625 212.945312 213.125 Z M 212.945312 213.125 " fill-opacity="1" fill-rule="nonzero"/><path fill="#38b6ff" d="M 273.492188 108.511719 C 274.613281 108.511719 275.523438 107.601562 275.523438 106.476562 L 275.523438 66.300781 C 275.523438 65.179688 274.613281 64.269531 273.492188 64.269531 C 272.371094 64.269531 271.460938 65.179688 271.460938 66.300781 L 271.460938 106.476562 C 271.460938 107.601562 272.371094 108.511719 273.492188 108.511719 Z M 273.492188 108.511719 " fill-opacity="1" fill-rule="nonzero"/><path fill="#38b6ff" d="M 132.144531 103.125 C 133.265625 103.125 134.175781 102.214844 134.175781 101.089844 L 134.175781 64.902344 C 134.175781 63.777344 133.265625 62.871094 132.144531 62.871094 C 131.019531 62.871094 130.109375 63.777344 130.109375 64.902344 L 130.109375 101.09375 C 130.109375 102.214844 131.019531 103.125 132.144531 103.125 Z M 132.144531 103.125 " fill-opacity="1" fill-rule="nonzero"/><g clip-path="url(#685954a4f3)"><path fill="#38b6ff" d="M 61.507812 184.042969 L 95.953125 184.042969 C 97.074219 184.042969 97.984375 183.132812 97.984375 182.007812 C 97.984375 180.886719 97.074219 179.976562 95.953125 179.976562 L 61.507812 179.976562 C 60.386719 179.976562 59.476562 180.886719 59.476562 182.007812 C 59.476562 183.132812 60.386719 184.042969 61.507812 184.042969 Z M 61.507812 184.042969 " fill-opacity="1" fill-rule="nonzero"/></g><g clip-path="url(#e5a86f1f9c)"><path fill="#38b6ff" d="M 91.988281 272.089844 L 61.507812 272.089844 C 60.386719 272.089844 59.476562 273 59.476562 274.121094 C 59.476562 275.246094 60.386719 276.15625 61.507812 276.15625 L 91.988281 276.15625 C 93.109375 276.15625 94.023438 275.246094 94.023438 274.121094 C 94.023438 273 93.109375 272.089844 91.988281 272.089844 Z M 91.988281 272.089844 " fill-opacity="1" fill-rule="nonzero"/></g><g clip-path="url(#dbd90b5dd0)"><path fill="#38b6ff" d="M 155.410156 273.351562 C 154.289062 273.351562 153.378906 274.257812 153.378906 275.382812 L 153.378906 313.542969 C 153.378906 314.667969 154.289062 315.578125 155.410156 315.578125 C 156.53125 315.578125 157.441406 314.667969 157.441406 313.542969 L 157.441406 275.382812 C 157.441406 274.257812 156.53125 273.351562 155.410156 273.351562 Z M 155.410156 273.351562 " fill-opacity="1" fill-rule="nonzero"/></g><g clip-path="url(#088c7e2b81)"><path fill="#38b6ff" d="M 270.832031 257.664062 C 269.710938 257.664062 268.796875 258.570312 268.796875 259.695312 L 268.796875 313.585938 C 268.796875 314.707031 269.710938 315.617188 270.832031 315.617188 C 271.953125 315.617188 272.863281 314.707031 272.863281 313.585938 L 272.863281 259.695312 C 272.863281 258.574219 271.953125 257.664062 270.832031 257.664062 Z M 270.832031 257.664062 " fill-opacity="1" fill-rule="nonzero"/></g><g clip-path="url(#0bebc4d84a)"><path fill="#38b6ff" d="M 313.484375 214.542969 L 282.269531 214.542969 C 281.148438 214.542969 280.238281 215.449219 280.238281 216.574219 C 280.238281 217.699219 281.148438 218.605469 282.269531 218.605469 L 313.484375 218.605469 C 314.605469 218.605469 315.515625 217.699219 315.515625 216.574219 C 315.515625 215.449219 314.605469 214.542969 313.484375 214.542969 Z M 313.484375 214.542969 " fill-opacity="1" fill-rule="nonzero"/></g><g clip-path="url(#5963bd4875)"><path fill="#38b6ff" d="M 61.507812 120.539062 L 78.71875 120.539062 C 79.84375 120.539062 80.753906 119.632812 80.753906 118.507812 C 80.753906 117.382812 79.84375 116.476562 78.71875 116.476562 L 61.507812 116.476562 C 60.386719 116.476562 59.476562 117.382812 59.476562 118.507812 C 59.476562 119.632812 60.386719 120.539062 61.507812 120.539062 Z M 61.507812 120.539062 " fill-opacity="1" fill-rule="nonzero"/></g><g clip-path="url(#d08808351a)"><path fill="#38b6ff" d="M 276.867188 170 L 291.09375 178.855469 C 291.425781 179.066406 291.796875 179.164062 292.164062 179.164062 C 292.84375 179.164062 293.507812 178.824219 293.890625 178.203125 C 294.484375 177.25 294.191406 176 293.242188 175.40625 L 279.132812 166.617188 L 281.28125 163.40625 L 289.347656 168.558594 C 289.6875 168.773438 290.0625 168.878906 290.4375 168.878906 C 291.109375 168.878906 291.765625 168.546875 292.152344 167.941406 C 292.757812 166.996094 292.480469 165.738281 291.535156 165.132812 L 283.542969 160.027344 L 290.414062 149.769531 C 290.988281 149.929688 291.574219 150.019531 292.167969 150.019531 C 295.785156 150.019531 298.730469 147.074219 298.730469 143.457031 C 298.730469 139.824219 295.785156 136.875 292.167969 136.875 C 288.546875 136.875 285.605469 139.824219 285.605469 143.457031 C 285.605469 144.945312 286.140625 146.34375 287.050781 147.492188 L 265.660156 179.429688 L 247.015625 179.429688 L 247.015625 173.902344 L 261.238281 173.902344 C 262.359375 173.902344 263.269531 172.992188 263.269531 171.871094 C 263.269531 170.746094 262.359375 169.835938 261.238281 169.835938 L 247.015625 169.835938 L 247.015625 138.726562 C 247.015625 135.75 245.578125 132.992188 243.164062 131.335938 C 238.898438 128.425781 234.550781 125.808594 230.167969 123.441406 L 230.167969 109.628906 C 230.167969 108.503906 229.257812 107.59375 228.136719 107.59375 C 227.015625 107.59375 226.105469 108.503906 226.105469 109.628906 L 226.105469 121.304688 C 224.550781 120.53125 222.992188 119.820312 221.429688 119.125 L 221.429688 95.046875 L 254.542969 63.074219 C 255.351562 62.292969 255.371094 61.003906 254.59375 60.199219 C 253.8125 59.394531 252.527344 59.367188 251.71875 60.148438 L 217.988281 92.722656 C 217.589844 93.105469 217.367188 93.632812 217.367188 94.1875 L 217.367188 117.363281 C 208.878906 113.886719 200.050781 111.375 191.085938 109.902344 C 190.578125 109.816406 190.054688 109.753906 189.527344 109.710938 L 189.527344 78.335938 C 189.527344 77.753906 189.277344 77.199219 188.84375 76.8125 L 175.25 64.78125 C 174.410156 64.039062 173.125 64.117188 172.378906 64.953125 C 171.636719 65.796875 171.714844 67.082031 172.554688 67.824219 L 185.464844 79.25 L 185.464844 109.703125 C 184.941406 109.75 184.421875 109.8125 183.917969 109.894531 C 181.738281 110.25 179.535156 110.699219 177.335938 111.191406 L 177.335938 102.878906 C 177.335938 101.753906 176.425781 100.847656 175.304688 100.847656 C 174.183594 100.847656 173.273438 101.753906 173.273438 102.878906 L 173.273438 112.179688 C 167.117188 113.769531 161.023438 115.878906 155.085938 118.453125 L 155.085938 108.308594 C 155.085938 107.183594 154.175781 106.273438 153.054688 106.273438 C 151.929688 106.273438 151.019531 107.183594 151.019531 108.308594 L 151.019531 120.285156 C 144.539062 123.355469 138.089844 127.054688 131.828125 131.339844 C 129.414062 132.992188 127.976562 135.75 127.976562 138.726562 L 127.976562 152.949219 L 113.265625 152.949219 C 112.144531 152.949219 111.234375 153.859375 111.234375 154.984375 C 111.234375 156.105469 112.144531 157.015625 113.265625 157.015625 L 127.976562 157.015625 L 127.976562 161.769531 L 105.746094 161.769531 L 105.746094 114.515625 C 108.367188 113.652344 110.277344 111.210938 110.277344 108.308594 C 110.277344 104.675781 107.332031 101.722656 103.714844 101.722656 C 100.09375 101.722656 97.152344 104.675781 97.152344 108.308594 C 97.152344 111.210938 99.0625 113.652344 101.683594 114.515625 L 101.683594 163.800781 C 101.683594 164.925781 102.59375 165.835938 103.714844 165.835938 L 127.976562 165.835938 L 127.976562 195.199219 L 81.695312 195.199219 C 80.835938 192.578125 78.394531 190.667969 75.488281 190.667969 C 71.871094 190.667969 68.925781 193.609375 68.925781 197.230469 C 68.925781 200.859375 71.871094 203.8125 75.488281 203.8125 C 78.398438 203.8125 80.839844 201.894531 81.699219 199.261719 L 87.640625 199.261719 L 87.640625 221.554688 C 87.640625 222.675781 88.550781 223.585938 89.671875 223.585938 C 90.792969 223.585938 91.703125 222.675781 91.703125 221.554688 L 91.703125 199.261719 L 127.976562 199.261719 L 127.976562 200.949219 C 127.976562 201.726562 127.996094 202.535156 128.03125 203.363281 L 112.695312 203.363281 C 111.574219 203.363281 110.664062 204.273438 110.664062 205.394531 C 110.664062 206.519531 111.574219 207.429688 112.695312 207.429688 L 128.355469 207.429688 C 129.402344 217.058594 132.730469 226.054688 138.070312 233.675781 L 122.085938 249.320312 C 121.285156 250.105469 121.269531 251.390625 122.054688 252.191406 C 122.453125 252.597656 122.980469 252.804688 123.507812 252.804688 C 124.019531 252.804688 124.535156 252.609375 124.929688 252.226562 L 140.523438 236.964844 C 142.230469 239.089844 144.085938 241.148438 146.074219 243.121094 L 122.097656 266.277344 C 121.699219 266.660156 121.476562 267.1875 121.476562 267.742188 L 121.476562 285.199219 L 99.019531 285.199219 C 97.898438 285.199219 96.988281 286.105469 96.988281 287.230469 C 96.988281 288.351562 97.898438 289.261719 99.019531 289.261719 L 121.472656 289.261719 L 121.472656 296.585938 C 118.851562 297.449219 116.941406 299.898438 116.941406 302.816406 C 116.941406 306.433594 119.886719 309.375 123.507812 309.375 C 127.136719 309.375 130.089844 306.433594 130.089844 302.816406 C 130.089844 299.898438 128.171875 297.445312 125.539062 296.585938 L 125.539062 268.605469 L 149.058594 245.890625 C 158.59375 254.355469 170.820312 260.800781 185.464844 265.0625 L 185.464844 313.585938 C 185.464844 314.707031 186.375 315.617188 187.496094 315.617188 C 188.617188 315.617188 189.527344 314.707031 189.527344 313.585938 L 189.527344 265.066406 C 201.636719 261.554688 212.125 256.550781 220.761719 250.140625 L 220.761719 264.816406 C 220.761719 265.941406 221.671875 266.847656 222.792969 266.847656 C 223.914062 266.847656 224.824219 265.941406 224.824219 264.816406 L 224.824219 246.882812 C 226.484375 245.46875 228.0625 243.988281 229.578125 242.445312 L 229.578125 276.15625 L 213.992188 276.15625 C 212.871094 276.15625 211.960938 277.0625 211.960938 278.1875 C 211.960938 279.308594 212.871094 280.21875 213.992188 280.21875 L 229.578125 280.21875 L 229.578125 283.722656 C 226.957031 284.582031 225.046875 287.027344 225.046875 289.933594 C 225.046875 293.550781 227.992188 296.492188 231.613281 296.492188 C 235.230469 296.492188 238.175781 293.550781 238.175781 289.933594 C 238.175781 287.027344 236.265625 284.582031 233.644531 283.722656 L 233.644531 267.617188 L 243.824219 267.617188 C 244.945312 267.617188 245.855469 266.710938 245.855469 265.585938 C 245.855469 264.460938 244.945312 263.554688 243.824219 263.554688 L 233.644531 263.554688 L 233.644531 237.96875 C 234.320312 237.15625 234.980469 236.332031 235.613281 235.492188 L 249.671875 250.152344 C 250.070312 250.566406 250.605469 250.777344 251.140625 250.777344 C 251.644531 250.777344 252.152344 250.585938 252.546875 250.210938 C 253.355469 249.433594 253.382812 248.148438 252.605469 247.339844 L 237.984375 232.089844 C 238.726562 230.941406 239.429688 229.773438 240.078125 228.574219 L 247.621094 235.988281 C 248.019531 236.378906 248.53125 236.570312 249.046875 236.570312 C 249.574219 236.570312 250.101562 236.367188 250.496094 235.964844 C 251.28125 235.160156 251.269531 233.878906 250.472656 233.089844 L 241.984375 224.75 C 245.265625 217.414062 247.015625 209.246094 247.015625 201.011719 L 247.015625 183.492188 L 264.714844 183.492188 L 264.714844 214.015625 C 264.714844 215.136719 265.625 216.046875 266.746094 216.046875 C 267.867188 216.046875 268.777344 215.136719 268.777344 214.015625 L 268.777344 182.078125 Z M 235.65625 142.464844 L 235.65625 204.058594 C 235.65625 211.640625 233.417969 218.886719 229.1875 225.015625 C 219.890625 238.488281 206.324219 245.78125 187.496094 253.046875 C 168.667969 245.78125 155.101562 238.488281 145.804688 225.011719 C 141.570312 218.882812 139.335938 211.640625 139.335938 204.054688 L 139.335938 142.464844 C 139.335938 140.808594 140.183594 139.238281 141.546875 138.363281 C 154.339844 130.210938 168.421875 124.367188 183.410156 120.996094 C 184.765625 120.695312 186.132812 120.539062 187.5 120.539062 C 188.863281 120.539062 190.230469 120.691406 191.585938 120.996094 C 206.570312 124.367188 220.65625 130.210938 233.445312 138.363281 C 234.808594 139.238281 235.65625 140.808594 235.65625 142.464844 Z M 235.65625 142.464844 " fill-opacity="1" fill-rule="nonzero"/></g></svg>