<?xml version="1.0" encoding="utf-8"?>
<svg xmlns="http://www.w3.org/2000/svg" xmlns:xlink="http://www.w3.org/1999/xlink" id="Layer_1" data-name="Layer 1" viewBox="0 0 191.67 160.31">
  <defs>
    <style>
      .cls-1 {
        fill: url(#linear-gradient);
      }
    </style>
    <linearGradient id="linear-gradient" x1="21.84" y1="80.15" x2="169.84" y2="80.15" gradientUnits="userSpaceOnUse">
      <stop offset="0" stop-color="#5f1ebe"/>
      <stop offset="1" stop-color="#3c91ff"/>
    </linearGradient>
  </defs>
  <path class="cls-1" d="M95.84,6.15C55.03,6.15,21.84,39.35,21.84,80.15s33.2,74,74,74,74-33.2,74-74S136.64,6.15,95.84,6.15ZM149.63,51.43h-24.99c-1.8-11-4.66-21.01-8.56-28.81,14.44,5.1,26.4,15.47,33.54,28.81ZM156.84,80.15c0,5.44-.72,10.7-2.06,15.72h-28.53c.44-5.18.66-10.45.66-15.72s-.23-10.55-.66-15.72h28.53c1.34,5.02,2.06,10.29,2.06,15.72ZM95.84,141.15c-4.42,0-11.86-11.21-15.67-32.28h31.34c-3.8,21.06-11.25,32.28-15.67,32.28ZM78.45,95.88c-.43-4.88-.68-10.11-.68-15.72s.25-10.85.68-15.72h34.77c.43,4.88.68,10.11.68,15.72,0,5.61-.25,10.85-.68,15.72h-34.77ZM34.84,80.15c0-5.44.72-10.7,2.06-15.72h28.53c-.44,5.18-.66,10.45-.66,15.72s.23,10.55.66,15.72h-28.53c-1.34-5.02-2.06-10.29-2.06-15.72ZM95.84,19.15c4.42,0,11.87,11.21,15.67,32.28h-31.34c3.8-21.07,11.25-32.28,15.67-32.28ZM75.59,22.63c-3.9,7.8-6.76,17.81-8.56,28.81h-24.99c7.15-13.33,19.11-23.71,33.54-28.81ZM42.04,108.88h24.99c1.8,11,4.66,21.01,8.56,28.81-14.44-5.1-26.4-15.47-33.55-28.81ZM116.09,137.69c3.9-7.8,6.76-17.81,8.56-28.81h24.99c-7.15,13.33-19.11,23.71-33.54,28.81Z"/>
</svg>