<svg xmlns="http://www.w3.org/2000/svg" xmlns:xlink="http://www.w3.org/1999/xlink" width="500" zoomAndPan="magnify" viewBox="0 0 375 374.999991" height="500" preserveAspectRatio="xMidYMid meet" version="1.0"><defs><clipPath id="689b628706"><path d="M 204 67.1875 L 281 67.1875 L 281 144 L 204 144 Z M 204 67.1875 " clip-rule="nonzero"/></clipPath><clipPath id="7c87bb180a"><path d="M 67.1875 285 L 307.9375 285 L 307.9375 307.9375 L 67.1875 307.9375 Z M 67.1875 285 " clip-rule="nonzero"/></clipPath></defs><path fill="#38b6ff" d="M 139.640625 148.945312 L 78.183594 148.945312 C 74.234375 148.945312 70.992188 145.703125 70.992188 141.757812 L 70.992188 113.5625 C 70.992188 109.617188 74.234375 106.375 78.183594 106.375 L 139.640625 106.375 C 143.589844 106.375 146.832031 109.617188 146.832031 113.5625 L 146.832031 141.757812 C 146.832031 145.703125 143.589844 148.945312 139.640625 148.945312 Z M 129.070312 139.78125 C 127.941406 139.78125 126.957031 139.078125 126.390625 138.089844 L 123.148438 130.480469 L 118.355469 130.480469 L 118.355469 136.964844 C 118.355469 138.515625 117.085938 139.78125 115.539062 139.78125 C 113.988281 139.78125 112.71875 138.515625 112.71875 136.964844 L 112.71875 118.355469 C 112.71875 116.804688 113.988281 115.539062 115.539062 115.539062 L 124.417969 115.539062 C 128.503906 115.539062 131.890625 118.921875 131.890625 123.007812 C 131.890625 125.546875 130.621094 127.800781 128.648438 129.070312 L 131.605469 135.835938 C 132.171875 137.246094 131.605469 138.9375 130.195312 139.5 C 129.773438 139.640625 129.351562 139.78125 129.070312 139.78125 Z M 124.558594 124.839844 L 124.699219 124.839844 C 125.546875 124.699219 126.25 123.855469 126.25 123.007812 C 126.25 122.019531 125.40625 121.175781 124.417969 121.175781 L 118.355469 121.175781 L 118.355469 124.839844 L 124.417969 124.839844 C 124.417969 124.839844 124.558594 124.839844 124.558594 124.839844 Z M 103.695312 139.78125 C 102.144531 139.78125 100.878906 138.515625 100.878906 136.964844 L 100.878906 130.480469 L 91.574219 130.480469 L 91.574219 136.964844 C 91.574219 138.515625 90.304688 139.78125 88.753906 139.78125 C 87.203125 139.78125 86.078125 138.515625 86.078125 136.964844 L 86.078125 118.355469 C 86.078125 116.804688 87.203125 115.539062 88.753906 115.539062 C 90.304688 115.539062 91.574219 116.804688 91.574219 118.355469 L 91.574219 124.839844 L 100.878906 124.839844 L 100.878906 118.355469 C 100.878906 116.804688 102.144531 115.539062 103.695312 115.539062 C 105.246094 115.539062 106.515625 116.804688 106.515625 118.355469 L 106.515625 136.964844 C 106.515625 138.515625 105.246094 139.78125 103.695312 139.78125 Z M 103.695312 139.78125 " fill-opacity="1" fill-rule="evenodd"/><path fill="#38b6ff" d="M 90.585938 185.59375 L 79.734375 185.59375 C 78.183594 185.59375 76.914062 184.328125 76.914062 182.777344 L 76.914062 155.992188 C 76.914062 154.441406 78.183594 153.175781 79.734375 153.175781 C 81.285156 153.175781 82.550781 154.441406 82.550781 155.992188 L 82.550781 180.097656 L 90.585938 180.097656 C 92.136719 180.097656 93.40625 181.226562 93.40625 182.777344 C 93.40625 184.328125 92.136719 185.59375 90.585938 185.59375 Z M 90.585938 185.59375 " fill-opacity="1" fill-rule="evenodd"/><g clip-path="url(#689b628706)"><path fill="#38b6ff" d="M 249.449219 143.730469 L 235.074219 143.730469 C 233.664062 143.730469 232.535156 142.601562 232.394531 141.191406 L 231.972656 137.808594 L 231.972656 128.363281 C 231.972656 120.894531 226.050781 114.972656 218.578125 114.972656 L 205.1875 114.972656 C 204.484375 114.410156 204.0625 113.5625 204.0625 112.578125 L 204.0625 98.339844 C 204.0625 96.929688 205.046875 95.660156 206.597656 95.519531 L 212.519531 94.957031 C 212.800781 93.96875 213.222656 92.84375 213.789062 91.714844 L 209.980469 87.203125 C 208.996094 86.078125 209.136719 84.527344 210.121094 83.398438 L 220.273438 73.390625 C 221.257812 72.261719 222.949219 72.261719 224.078125 73.25 L 228.589844 77.054688 C 229.574219 76.492188 230.703125 76.066406 231.832031 75.644531 L 232.394531 69.726562 C 232.535156 68.316406 233.664062 67.1875 235.074219 67.1875 L 249.449219 67.1875 C 250.859375 67.1875 252.128906 68.316406 252.128906 69.726562 L 252.691406 75.644531 C 253.820312 76.066406 254.949219 76.492188 255.933594 77.054688 L 260.445312 73.25 C 261.574219 72.261719 263.265625 72.261719 264.25 73.390625 L 274.402344 83.398438 C 275.386719 84.527344 275.527344 86.078125 274.542969 87.203125 L 270.734375 91.714844 C 271.300781 92.84375 271.722656 93.96875 272.144531 94.957031 L 277.925781 95.519531 C 279.476562 95.660156 280.601562 96.929688 280.601562 98.339844 L 280.601562 112.578125 C 280.601562 113.988281 279.476562 115.253906 277.925781 115.394531 L 272.144531 115.960938 C 271.722656 116.945312 271.300781 118.074219 270.734375 119.203125 L 274.542969 123.714844 C 275.527344 124.839844 275.386719 126.390625 274.402344 127.519531 L 264.25 137.527344 C 263.265625 138.65625 261.574219 138.65625 260.445312 137.667969 L 255.933594 133.863281 C 254.949219 134.425781 253.820312 134.847656 252.691406 135.273438 L 252.128906 141.191406 C 252.128906 142.601562 250.859375 143.730469 249.449219 143.730469 Z M 242.261719 124.699219 C 231.6875 124.699219 222.949219 116.101562 222.949219 105.386719 C 222.949219 94.816406 231.6875 86.21875 242.261719 86.21875 C 252.832031 86.21875 261.574219 94.816406 261.574219 105.386719 C 261.574219 116.101562 252.832031 124.699219 242.261719 124.699219 Z M 242.261719 91.855469 C 234.789062 91.855469 228.589844 97.917969 228.589844 105.386719 C 228.589844 113 234.789062 119.0625 242.261719 119.0625 C 249.734375 119.0625 255.933594 113 255.933594 105.386719 C 255.933594 97.917969 249.734375 91.855469 242.261719 91.855469 Z M 242.261719 91.855469 " fill-opacity="1" fill-rule="evenodd"/></g><path fill="#38b6ff" d="M 195.320312 167.832031 C 195.179688 167.832031 194.898438 167.691406 194.617188 167.691406 C 193.769531 167.410156 193.066406 166.847656 192.785156 165.859375 L 190.667969 160.082031 L 165.859375 160.082031 C 161.066406 160.082031 157.121094 156.132812 157.121094 151.199219 L 157.121094 128.363281 C 157.121094 123.570312 161.066406 119.625 165.859375 119.625 L 218.578125 119.625 C 223.371094 119.625 227.320312 123.570312 227.320312 128.363281 L 227.320312 151.199219 C 227.320312 156.132812 223.371094 160.082031 218.578125 160.082031 L 206.175781 160.082031 L 197.152344 167.128906 C 196.589844 167.550781 196.027344 167.832031 195.320312 167.832031 Z M 181.085938 148.945312 L 171.640625 148.945312 C 170.230469 148.945312 168.960938 147.675781 168.960938 146.125 C 168.960938 144.574219 170.230469 143.304688 171.640625 143.304688 L 181.085938 143.304688 C 182.636719 143.304688 183.902344 144.574219 183.902344 146.125 C 183.902344 147.675781 182.636719 148.945312 181.085938 148.945312 Z M 212.800781 148.945312 L 188.554688 148.945312 C 187.144531 148.945312 185.878906 147.675781 185.878906 146.125 C 185.878906 144.574219 187.144531 143.304688 188.554688 143.304688 L 212.800781 143.304688 C 214.351562 143.304688 215.621094 144.574219 215.621094 146.125 C 215.621094 147.675781 214.351562 148.945312 212.800781 148.945312 Z M 212.800781 136.257812 L 171.640625 136.257812 C 170.230469 136.257812 168.960938 134.988281 168.960938 133.4375 C 168.960938 131.890625 170.230469 130.621094 171.640625 130.621094 L 212.800781 130.621094 C 214.351562 130.621094 215.621094 131.890625 215.621094 133.4375 C 215.621094 134.988281 214.351562 136.257812 212.800781 136.257812 Z M 212.800781 136.257812 " fill-opacity="1" fill-rule="evenodd"/><g clip-path="url(#7c87bb180a)"><path fill="#38b6ff" d="M 304.285156 307.808594 L 70.710938 307.808594 C 69.160156 307.808594 67.890625 306.539062 67.890625 304.988281 L 67.890625 287.933594 C 67.890625 286.382812 69.160156 285.113281 70.710938 285.113281 L 304.285156 285.113281 C 305.835938 285.113281 307.105469 286.382812 307.105469 287.933594 L 307.105469 304.988281 C 307.105469 306.539062 305.835938 307.808594 304.285156 307.808594 Z M 304.285156 307.808594 " fill-opacity="1" fill-rule="evenodd"/></g><path fill="#38b6ff" d="M 73.53125 280.460938 L 73.53125 261.007812 C 73.53125 249.449219 80.296875 239.441406 90.023438 234.507812 L 116.804688 258.332031 C 118.214844 259.457031 119.90625 260.164062 121.738281 260.164062 C 122.023438 260.164062 122.164062 260.164062 122.445312 260.164062 L 120.328125 271.582031 C 120.328125 271.582031 120.328125 271.722656 120.328125 271.722656 L 118.78125 280.460938 L 94.957031 280.460938 L 94.957031 261.714844 C 94.957031 260.164062 93.6875 258.894531 92.136719 258.894531 C 90.585938 258.894531 89.320312 260.164062 89.320312 261.714844 L 89.320312 280.460938 Z M 128.789062 256.074219 L 129.210938 255.792969 L 129.492188 256.074219 L 131.605469 267.917969 L 126.53125 268.761719 Z M 132.59375 273.414062 L 133.863281 280.460938 L 124.417969 280.460938 L 125.546875 274.542969 Z M 135.976562 260.164062 C 136.117188 260.164062 136.257812 260.164062 136.539062 260.164062 C 138.371094 260.164062 140.066406 259.457031 141.472656 258.332031 L 168.257812 234.507812 C 177.984375 239.441406 184.75 249.449219 184.75 261.007812 L 184.75 280.460938 L 168.960938 280.460938 L 168.960938 261.714844 C 168.960938 260.164062 167.691406 258.894531 166.140625 258.894531 C 164.59375 258.894531 163.324219 260.164062 163.324219 261.714844 L 163.324219 280.460938 L 139.5 280.460938 L 137.667969 269.890625 L 137.667969 269.609375 Z M 135.976562 260.164062 " fill-opacity="1" fill-rule="evenodd"/><path fill="#38b6ff" d="M 114.832031 237.046875 C 113.421875 237.046875 112.296875 236.058594 112.152344 234.648438 L 111.027344 225.488281 C 110.886719 223.9375 112.011719 222.527344 113.5625 222.386719 C 115.113281 222.105469 116.523438 223.230469 116.664062 224.78125 L 117.652344 233.945312 C 117.792969 235.496094 116.664062 236.90625 115.253906 237.046875 C 115.113281 237.046875 114.972656 237.046875 114.832031 237.046875 Z M 143.449219 237.046875 C 143.308594 237.046875 143.308594 237.046875 143.164062 237.046875 C 141.613281 236.90625 140.488281 235.496094 140.628906 233.945312 L 141.757812 224.78125 C 141.898438 223.230469 143.308594 222.105469 144.855469 222.386719 C 146.265625 222.527344 147.394531 223.9375 147.253906 225.488281 L 146.265625 234.648438 C 146.125 236.058594 144.855469 237.046875 143.449219 237.046875 Z M 143.449219 237.046875 " fill-opacity="1" fill-rule="evenodd"/><path fill="#38b6ff" d="M 129.210938 234.507812 C 113.5625 234.507812 105.246094 220.128906 102.570312 210.828125 C 99.042969 210.121094 97.210938 206.597656 96.648438 204.484375 C 95.238281 200.253906 95.238281 196.871094 96.789062 194.335938 C 98.480469 191.796875 101.160156 191.234375 102.144531 191.09375 C 103.695312 190.953125 105.105469 191.9375 105.246094 193.488281 C 105.386719 195.039062 104.402344 196.449219 102.851562 196.589844 C 102.570312 196.589844 101.863281 196.730469 101.582031 197.292969 C 101.300781 197.71875 100.734375 199.128906 102.003906 202.652344 C 102.003906 202.792969 102.144531 202.933594 102.144531 202.933594 C 102.144531 202.933594 102.851562 205.613281 104.261719 205.328125 C 105.671875 205.1875 107.078125 206.035156 107.503906 207.585938 C 107.644531 208.429688 112.578125 228.871094 129.210938 229.011719 C 145.84375 228.871094 150.777344 207.726562 150.917969 207.585938 C 151.199219 206.035156 152.609375 205.1875 154.019531 205.328125 C 155.570312 205.613281 156.273438 203.074219 156.273438 202.933594 C 156.273438 202.933594 156.273438 202.792969 156.273438 202.652344 C 157.261719 199.832031 157.121094 198 156.699219 197.292969 C 156.558594 196.871094 155.851562 196.730469 155.007812 196.589844 C 153.457031 196.449219 152.328125 195.039062 152.46875 193.488281 C 152.609375 192.078125 153.878906 190.8125 155.429688 190.953125 C 158.8125 191.234375 160.644531 192.925781 161.492188 194.195312 C 163.042969 196.730469 163.042969 200.253906 161.632812 204.484375 C 161.066406 206.597656 159.234375 210.121094 155.851562 210.828125 C 153.03125 220.128906 144.855469 234.507812 129.210938 234.507812 Z M 129.210938 234.507812 " fill-opacity="1" fill-rule="evenodd"/><path fill="#38b6ff" d="M 109.335938 204.90625 C 108.488281 204.90625 107.644531 204.484375 107.078125 203.777344 C 106.375 202.933594 105.527344 202.085938 104.683594 201.382812 C 102.992188 199.972656 101.160156 198.421875 100.03125 195.179688 C 97.070312 187.285156 97.496094 179.109375 101.300781 172.625 C 104.824219 166.707031 110.886719 162.898438 118.355469 161.632812 C 120.613281 161.351562 123.148438 161.066406 125.828125 161.066406 C 140.488281 161.066406 156.273438 166.566406 156.980469 166.847656 C 157.824219 167.128906 158.53125 167.976562 158.8125 168.960938 C 158.953125 169.949219 158.53125 170.933594 157.824219 171.640625 L 155.710938 173.332031 L 162.476562 173.894531 C 163.746094 173.894531 164.875 175.023438 165.015625 176.292969 C 166 186.160156 160.785156 192.644531 157.402344 195.601562 C 154.722656 198.140625 150.636719 199.550781 146.125 199.550781 C 143.023438 199.550781 139.921875 198.84375 137.246094 197.578125 L 137.667969 198.988281 C 137.949219 199.410156 138.089844 199.832031 138.089844 200.253906 C 138.089844 201.804688 136.679688 203.074219 135.273438 203.074219 C 135.132812 203.074219 135.132812 203.074219 135.132812 203.074219 C 124.980469 202.933594 118.496094 198.140625 114.972656 193.488281 L 112.011719 202.933594 C 111.730469 203.921875 110.886719 204.765625 109.757812 204.90625 C 109.617188 204.90625 109.476562 204.90625 109.335938 204.90625 Z M 109.335938 204.90625 " fill-opacity="1" fill-rule="evenodd"/><path fill="#38b6ff" d="M 190.246094 280.460938 L 190.246094 261.007812 C 190.246094 244.796875 203.496094 231.546875 219.707031 231.546875 C 222.246094 231.546875 224.21875 231.546875 225.769531 231.6875 L 226.753906 231.6875 C 226.898438 231.6875 227.039062 231.6875 227.179688 231.6875 C 227.601562 231.6875 228.023438 231.832031 228.449219 231.6875 C 228.304688 230.84375 228.164062 229.433594 228.023438 228.164062 C 227.882812 227.320312 227.742188 226.472656 227.742188 225.488281 C 227.460938 223.9375 228.589844 222.527344 230.140625 222.386719 C 231.6875 222.105469 233.097656 223.230469 233.238281 224.78125 C 233.382812 225.769531 233.523438 226.613281 233.523438 227.460938 C 234.085938 231.832031 234.367188 234.085938 232.816406 235.777344 C 232.394531 236.199219 232.113281 236.480469 231.832031 236.621094 C 235.777344 241.273438 240.710938 243.953125 245.785156 243.953125 C 250.859375 243.953125 255.792969 241.273438 259.742188 236.621094 C 259.457031 236.480469 259.175781 236.199219 258.894531 235.777344 C 257.203125 234.085938 257.484375 231.832031 258.050781 227.460938 C 258.050781 226.613281 258.191406 225.769531 258.332031 224.78125 C 258.472656 223.230469 259.882812 222.105469 261.433594 222.386719 C 262.984375 222.527344 264.109375 223.9375 263.828125 225.488281 C 263.828125 226.472656 263.6875 227.320312 263.546875 228.164062 C 263.40625 229.433594 263.265625 230.84375 263.265625 231.6875 C 263.546875 231.832031 263.96875 231.6875 264.390625 231.6875 C 264.535156 231.6875 264.675781 231.6875 264.816406 231.6875 L 265.800781 231.6875 C 267.351562 231.546875 269.324219 231.546875 271.863281 231.546875 C 288.074219 231.546875 301.324219 244.796875 301.324219 261.007812 L 301.324219 280.460938 L 285.535156 280.460938 L 285.535156 261.714844 C 285.535156 260.164062 284.410156 258.894531 282.859375 258.894531 C 281.308594 258.894531 280.039062 260.164062 280.039062 261.714844 L 280.039062 280.460938 L 211.53125 280.460938 L 211.53125 261.714844 C 211.53125 260.164062 210.261719 258.894531 208.710938 258.894531 C 207.164062 258.894531 206.035156 260.164062 206.035156 261.714844 L 206.035156 280.460938 Z M 190.246094 280.460938 " fill-opacity="1" fill-rule="evenodd"/><path fill="#38b6ff" d="M 245.785156 234.507812 C 230.140625 234.507812 221.964844 220.128906 219.144531 210.828125 C 215.761719 210.121094 213.929688 206.597656 213.363281 204.484375 C 211.8125 200.253906 211.953125 196.730469 213.503906 194.195312 C 214.351562 192.925781 216.042969 191.234375 219.425781 190.953125 C 220.976562 190.8125 222.386719 192.078125 222.527344 193.488281 C 222.667969 195.039062 221.539062 196.449219 219.988281 196.589844 C 219.003906 196.730469 218.4375 196.871094 218.15625 197.292969 C 217.734375 198 217.59375 199.832031 218.722656 202.652344 C 218.722656 202.792969 218.722656 202.933594 218.722656 202.933594 C 218.722656 202.933594 219.425781 205.613281 220.835938 205.328125 C 222.386719 205.1875 223.796875 206.035156 224.078125 207.585938 C 224.21875 208.429688 229.152344 228.871094 245.785156 229.011719 C 262.417969 228.871094 267.492188 207.726562 267.492188 207.585938 C 267.777344 206.035156 269.183594 205.1875 270.734375 205.328125 C 272.144531 205.613281 272.851562 202.933594 272.851562 202.933594 C 272.851562 202.933594 272.851562 202.792969 272.851562 202.652344 C 274.117188 199.128906 273.695312 197.71875 273.414062 197.292969 C 272.992188 196.730469 272.285156 196.589844 272.144531 196.589844 C 270.59375 196.449219 269.46875 195.039062 269.75 193.488281 C 269.890625 191.9375 271.300781 190.953125 272.851562 191.09375 C 273.835938 191.234375 276.515625 191.796875 278.066406 194.335938 C 279.617188 196.871094 279.757812 200.253906 278.207031 204.484375 C 277.644531 206.597656 275.808594 210.121094 272.425781 210.828125 C 269.75 220.128906 261.433594 234.507812 245.785156 234.507812 Z M 245.785156 234.507812 " fill-opacity="1" fill-rule="evenodd"/><path fill="#38b6ff" d="M 246.914062 203.074219 C 246.066406 203.074219 245.363281 202.652344 244.800781 202.085938 C 244.234375 201.382812 243.953125 200.394531 244.234375 199.410156 C 244.800781 197.578125 245.222656 196.167969 245.503906 195.039062 C 241.839844 197.4375 236.480469 200.820312 230.28125 200.820312 C 225.628906 200.820312 221.398438 199.128906 217.453125 195.601562 C 214.210938 192.644531 208.855469 186.160156 209.980469 176.292969 C 210.121094 175.023438 211.109375 173.894531 212.519531 173.894531 L 220.695312 173.191406 L 219.144531 171.21875 C 218.578125 170.511719 218.4375 169.667969 218.578125 168.820312 C 218.863281 167.832031 219.425781 167.128906 220.273438 166.847656 C 220.835938 166.566406 235.074219 161.066406 249.308594 161.066406 C 251.847656 161.066406 254.242188 161.351562 256.5 161.632812 C 264.109375 162.898438 270.171875 166.847656 273.695312 172.765625 C 277.5 179.25 277.925781 187.570312 274.824219 195.460938 C 272.285156 202.371094 261.574219 202.511719 252.832031 202.792969 C 250.71875 202.792969 248.605469 202.933594 247.335938 203.074219 C 247.195312 203.074219 247.054688 203.074219 246.914062 203.074219 Z M 246.914062 203.074219 " fill-opacity="1" fill-rule="evenodd"/><path fill="#38b6ff" d="M 127.800781 242.402344 L 141.898438 231.972656 C 143.308594 230.984375 152.1875 231.546875 155.148438 231.546875 C 158.109375 231.546875 160.785156 231.972656 163.324219 232.675781 L 138.371094 254.808594 C 137.808594 255.230469 137.246094 255.511719 136.539062 255.511719 C 135.835938 255.511719 134.988281 255.230469 134.425781 254.667969 L 127.097656 246.632812 C 125.96875 245.363281 126.109375 243.53125 127.800781 242.402344 Z M 127.800781 242.402344 " fill-opacity="1" fill-rule="evenodd"/><path fill="#38b6ff" d="M 130.621094 242.402344 L 116.523438 231.972656 C 115.113281 230.984375 106.09375 231.546875 103.132812 231.546875 C 100.3125 231.546875 97.496094 231.832031 94.957031 232.675781 L 119.90625 254.808594 C 120.472656 255.230469 121.175781 255.511719 121.738281 255.511719 C 122.585938 255.511719 123.289062 255.230469 123.855469 254.667969 L 131.183594 246.632812 C 132.453125 245.363281 132.171875 243.53125 130.621094 242.402344 Z M 130.621094 242.402344 " fill-opacity="1" fill-rule="evenodd"/></svg>