<svg xmlns="http://www.w3.org/2000/svg" xmlns:xlink="http://www.w3.org/1999/xlink" width="800" zoomAndPan="magnify" viewBox="0 0 600 116.249996" height="155" preserveAspectRatio="xMidYMid meet" version="1.0"><defs><g/><clipPath id="cb3ac55028"><path d="M 77.542969 20.011719 L 153.023438 20.011719 L 153.023438 95.492188 L 77.542969 95.492188 Z M 77.542969 20.011719 " clip-rule="nonzero"/></clipPath><clipPath id="ea384387a8"><path d="M 115.28125 20.011719 C 94.4375 20.011719 77.542969 36.910156 77.542969 57.753906 C 77.542969 78.597656 94.4375 95.492188 115.28125 95.492188 C 136.125 95.492188 153.023438 78.597656 153.023438 57.753906 C 153.023438 36.910156 136.125 20.011719 115.28125 20.011719 Z M 115.28125 20.011719 " clip-rule="nonzero"/></clipPath><clipPath id="00beb536af"><path d="M 446.578125 7.039062 L 474.191406 7.039062 L 474.191406 34.652344 L 446.578125 34.652344 Z M 446.578125 7.039062 " clip-rule="nonzero"/></clipPath><clipPath id="e5e20c5958"><path d="M 460.386719 7.039062 C 452.761719 7.039062 446.578125 13.21875 446.578125 20.84375 C 446.578125 28.46875 452.761719 34.652344 460.386719 34.652344 C 468.011719 34.652344 474.191406 28.46875 474.191406 20.84375 C 474.191406 13.21875 468.011719 7.039062 460.386719 7.039062 Z M 460.386719 7.039062 " clip-rule="nonzero"/></clipPath></defs><g clip-path="url(#cb3ac55028)"><g clip-path="url(#ea384387a8)"><path fill="#38b6ff" d="M 77.542969 20.011719 L 153.023438 20.011719 L 153.023438 95.492188 L 77.542969 95.492188 Z M 77.542969 20.011719 " fill-opacity="1" fill-rule="nonzero"/></g></g><g fill="#ffffff" fill-opacity="1"><g transform="translate(113.899866, 91.286051)"><g><path d="M 8.203125 0 L 8.203125 -70.65625 L 28.140625 -70.65625 C 34.285156 -70.65625 39.71875 -69.296875 44.4375 -66.578125 C 49.164062 -63.859375 52.816406 -59.988281 55.390625 -54.96875 C 57.960938 -49.957031 59.265625 -44.203125 59.296875 -37.703125 L 59.296875 -33.1875 C 59.296875 -26.519531 58.007812 -20.679688 55.4375 -15.671875 C 52.863281 -10.660156 49.191406 -6.8125 44.421875 -4.125 C 39.648438 -1.4375 34.09375 -0.0625 27.75 0 Z M 17.515625 -62.984375 L 17.515625 -7.625 L 27.3125 -7.625 C 34.5 -7.625 40.085938 -9.851562 44.078125 -14.3125 C 48.078125 -18.78125 50.078125 -25.140625 50.078125 -33.390625 L 50.078125 -37.515625 C 50.078125 -45.535156 48.191406 -51.769531 44.421875 -56.21875 C 40.648438 -60.664062 35.304688 -62.921875 28.390625 -62.984375 Z M 17.515625 -62.984375 "/></g></g></g><g fill="#ffffff" fill-opacity="1"><g transform="translate(179.060763, 91.286051)"><g><path d="M 28.578125 0.96875 C 21.460938 0.96875 15.671875 -1.363281 11.203125 -6.03125 C 6.742188 -10.707031 4.515625 -16.960938 4.515625 -24.796875 L 4.515625 -26.4375 C 4.515625 -31.644531 5.507812 -36.296875 7.5 -40.390625 C 9.488281 -44.484375 12.269531 -47.6875 15.84375 -50 C 19.414062 -52.3125 23.289062 -53.46875 27.46875 -53.46875 C 34.289062 -53.46875 39.59375 -51.21875 43.375 -46.71875 C 47.164062 -42.226562 49.0625 -35.796875 49.0625 -27.421875 L 49.0625 -23.671875 L 13.484375 -23.671875 C 13.617188 -18.503906 15.132812 -14.328125 18.03125 -11.140625 C 20.925781 -7.953125 24.601562 -6.359375 29.0625 -6.359375 C 32.238281 -6.359375 34.925781 -7.003906 37.125 -8.296875 C 39.320312 -9.585938 41.242188 -11.300781 42.890625 -13.4375 L 48.375 -9.171875 C 43.976562 -2.410156 37.378906 0.96875 28.578125 0.96875 Z M 27.46875 -46.09375 C 23.84375 -46.09375 20.800781 -44.773438 18.34375 -42.140625 C 15.882812 -39.503906 14.363281 -35.8125 13.78125 -31.0625 L 40.078125 -31.0625 L 40.078125 -31.734375 C 39.816406 -36.296875 38.585938 -39.828125 36.390625 -42.328125 C 34.191406 -44.835938 31.21875 -46.09375 27.46875 -46.09375 Z M 27.46875 -46.09375 "/></g></g></g><g fill="#ffffff" fill-opacity="1"><g transform="translate(231.703781, 91.286051)"><g><path d="M 16.546875 0 L 7.5625 0 L 7.5625 -74.53125 L 16.546875 -74.53125 Z M 16.546875 0 "/></g></g></g><g fill="#ffffff" fill-opacity="1"><g transform="translate(255.81768, 91.286051)"><g><path d="M 16.546875 0 L 7.5625 0 L 7.5625 -52.5 L 16.546875 -52.5 Z M 6.84375 -66.421875 C 6.84375 -67.878906 7.285156 -69.109375 8.171875 -70.109375 C 9.066406 -71.117188 10.382812 -71.625 12.125 -71.625 C 13.875 -71.625 15.203125 -71.117188 16.109375 -70.109375 C 17.015625 -69.109375 17.46875 -67.878906 17.46875 -66.421875 C 17.46875 -64.972656 17.015625 -63.757812 16.109375 -62.78125 C 15.203125 -61.8125 13.875 -61.328125 12.125 -61.328125 C 10.382812 -61.328125 9.066406 -61.8125 8.171875 -62.78125 C 7.285156 -63.757812 6.84375 -64.972656 6.84375 -66.421875 Z M 6.84375 -66.421875 "/></g></g></g><g fill="#ffffff" fill-opacity="1"><g transform="translate(279.931579, 91.286051)"><g><path d="M 4.421875 -26.734375 C 4.421875 -31.878906 5.429688 -36.503906 7.453125 -40.609375 C 9.472656 -44.722656 12.285156 -47.894531 15.890625 -50.125 C 19.492188 -52.351562 23.609375 -53.46875 28.234375 -53.46875 C 35.390625 -53.46875 41.171875 -50.992188 45.578125 -46.046875 C 49.992188 -41.097656 52.203125 -34.515625 52.203125 -26.296875 L 52.203125 -25.671875 C 52.203125 -20.554688 51.222656 -15.96875 49.265625 -11.90625 C 47.316406 -7.851562 44.519531 -4.691406 40.875 -2.421875 C 37.238281 -0.160156 33.0625 0.96875 28.34375 0.96875 C 21.21875 0.96875 15.445312 -1.503906 11.03125 -6.453125 C 6.625 -11.398438 4.421875 -17.953125 4.421875 -26.109375 Z M 13.4375 -25.671875 C 13.4375 -19.847656 14.785156 -15.171875 17.484375 -11.640625 C 20.191406 -8.117188 23.8125 -6.359375 28.34375 -6.359375 C 32.894531 -6.359375 36.515625 -8.144531 39.203125 -11.71875 C 41.890625 -15.289062 43.234375 -20.296875 43.234375 -26.734375 C 43.234375 -32.492188 41.863281 -37.160156 39.125 -40.734375 C 36.394531 -44.304688 32.765625 -46.09375 28.234375 -46.09375 C 23.804688 -46.09375 20.234375 -44.328125 17.515625 -40.796875 C 14.796875 -37.273438 13.4375 -32.234375 13.4375 -25.671875 Z M 13.4375 -25.671875 "/></g></g></g><g fill="#ffffff" fill-opacity="1"><g transform="translate(336.601667, 91.286051)"><g><path d="M 37.359375 -13.921875 C 37.359375 -16.347656 36.441406 -18.234375 34.609375 -19.578125 C 32.785156 -20.921875 29.601562 -22.078125 25.0625 -23.046875 C 20.519531 -24.015625 16.910156 -25.175781 14.234375 -26.53125 C 11.566406 -27.894531 9.59375 -29.515625 8.3125 -31.390625 C 7.039062 -33.265625 6.40625 -35.5 6.40625 -38.09375 C 6.40625 -42.394531 8.222656 -46.03125 11.859375 -49 C 15.503906 -51.976562 20.15625 -53.46875 25.8125 -53.46875 C 31.769531 -53.46875 36.597656 -51.929688 40.296875 -48.859375 C 44.003906 -45.785156 45.859375 -41.859375 45.859375 -37.078125 L 36.828125 -37.078125 C 36.828125 -39.535156 35.78125 -41.648438 33.6875 -43.421875 C 31.601562 -45.203125 28.976562 -46.09375 25.8125 -46.09375 C 22.539062 -46.09375 19.984375 -45.378906 18.140625 -43.953125 C 16.296875 -42.535156 15.375 -40.675781 15.375 -38.375 C 15.375 -36.207031 16.234375 -34.570312 17.953125 -33.46875 C 19.671875 -32.375 22.769531 -31.328125 27.25 -30.328125 C 31.726562 -29.328125 35.359375 -28.128906 38.140625 -26.734375 C 40.921875 -25.347656 42.984375 -23.675781 44.328125 -21.71875 C 45.671875 -19.757812 46.34375 -17.375 46.34375 -14.5625 C 46.34375 -9.863281 44.460938 -6.097656 40.703125 -3.265625 C 36.953125 -0.441406 32.085938 0.96875 26.109375 0.96875 C 21.898438 0.96875 18.175781 0.222656 14.9375 -1.265625 C 11.707031 -2.753906 9.175781 -4.832031 7.34375 -7.5 C 5.519531 -10.164062 4.609375 -13.050781 4.609375 -16.15625 L 13.59375 -16.15625 C 13.75 -13.144531 14.953125 -10.757812 17.203125 -9 C 19.453125 -7.238281 22.421875 -6.359375 26.109375 -6.359375 C 29.503906 -6.359375 32.226562 -7.046875 34.28125 -8.421875 C 36.332031 -9.796875 37.359375 -11.628906 37.359375 -13.921875 Z M 37.359375 -13.921875 "/></g></g></g><g fill="#ffffff" fill-opacity="1"><g transform="translate(387.837637, 91.286051)"><g><path d="M 23.96875 -13.15625 L 36.203125 -52.5 L 45.8125 -52.5 L 24.703125 8.109375 C 21.429688 16.835938 16.238281 21.203125 9.125 21.203125 L 7.421875 21.0625 L 4.078125 20.421875 L 4.078125 13.15625 L 6.5 13.34375 C 9.539062 13.34375 11.910156 12.726562 13.609375 11.5 C 15.304688 10.269531 16.707031 8.019531 17.8125 4.75 L 19.796875 -0.578125 L 1.0625 -52.5 L 10.875 -52.5 Z M 23.96875 -13.15625 "/></g></g></g><g fill="#ffffff" fill-opacity="1"><g transform="translate(434.85245, 91.286051)"><g><path d="M 37.359375 -13.921875 C 37.359375 -16.347656 36.441406 -18.234375 34.609375 -19.578125 C 32.785156 -20.921875 29.601562 -22.078125 25.0625 -23.046875 C 20.519531 -24.015625 16.910156 -25.175781 14.234375 -26.53125 C 11.566406 -27.894531 9.59375 -29.515625 8.3125 -31.390625 C 7.039062 -33.265625 6.40625 -35.5 6.40625 -38.09375 C 6.40625 -42.394531 8.222656 -46.03125 11.859375 -49 C 15.503906 -51.976562 20.15625 -53.46875 25.8125 -53.46875 C 31.769531 -53.46875 36.597656 -51.929688 40.296875 -48.859375 C 44.003906 -45.785156 45.859375 -41.859375 45.859375 -37.078125 L 36.828125 -37.078125 C 36.828125 -39.535156 35.78125 -41.648438 33.6875 -43.421875 C 31.601562 -45.203125 28.976562 -46.09375 25.8125 -46.09375 C 22.539062 -46.09375 19.984375 -45.378906 18.140625 -43.953125 C 16.296875 -42.535156 15.375 -40.675781 15.375 -38.375 C 15.375 -36.207031 16.234375 -34.570312 17.953125 -33.46875 C 19.671875 -32.375 22.769531 -31.328125 27.25 -30.328125 C 31.726562 -29.328125 35.359375 -28.128906 38.140625 -26.734375 C 40.921875 -25.347656 42.984375 -23.675781 44.328125 -21.71875 C 45.671875 -19.757812 46.34375 -17.375 46.34375 -14.5625 C 46.34375 -9.863281 44.460938 -6.097656 40.703125 -3.265625 C 36.953125 -0.441406 32.085938 0.96875 26.109375 0.96875 C 21.898438 0.96875 18.175781 0.222656 14.9375 -1.265625 C 11.707031 -2.753906 9.175781 -4.832031 7.34375 -7.5 C 5.519531 -10.164062 4.609375 -13.050781 4.609375 -16.15625 L 13.59375 -16.15625 C 13.75 -13.144531 14.953125 -10.757812 17.203125 -9 C 19.453125 -7.238281 22.421875 -6.359375 26.109375 -6.359375 C 29.503906 -6.359375 32.226562 -7.046875 34.28125 -8.421875 C 36.332031 -9.796875 37.359375 -11.628906 37.359375 -13.921875 Z M 37.359375 -13.921875 "/></g></g></g><g clip-path="url(#00beb536af)"><g clip-path="url(#e5e20c5958)"><path fill="#7ed957" d="M 446.578125 7.039062 L 474.191406 7.039062 L 474.191406 34.652344 L 446.578125 34.652344 Z M 446.578125 7.039062 " fill-opacity="1" fill-rule="nonzero"/></g></g></svg>